PathFileType	4	(X/Y/Z)	C:\Users\°ÂÌØÂü\Desktop\20210112\bx_n_10_501-Unnamed.trc
DataRate	CameraRate	NumFrames	NumMarkers	Units	OrigDataRate	OrigDataStartFrame	OrigNumFrames
50.00	50.00	       8	0	mm	50.00	1	       436
Frame#	Time	
		

1	0.000	-671.76373	128.59985	1849.01196	-733.25317	295.09076	1526.52844	-589.23407	6.15904	1054.92346	-608.67706	254.21318	1066.70386	-576.45355	8.09960	805.13660	-694.31311	275.81573	743.79492	-723.99286	255.09122	641.99188	-725.46143	250.37245	576.11627	-671.74408	209.09535	534.55383	-766.64520	259.56790	502.38181	-517.30908	-72.79568	143.29193	-549.56995	-31.59851	164.25084	-790.68036	42.59146	175.49414	-715.73462	74.95121	214.33711	-596.83948	26.25474	165.54776	-671.72968	56.38071	153.49216	-711.11603	152.53581	216.35181	-794.52020	175.60840	184.54158	-767.98663	225.34773	205.50725	-591.89215	219.86917	174.29314	-882.51721	295.96179	144.49458	-555.92242	257.47733	164.41321	-661.36438	298.12592	157.58838	-624.94910	307.13297	158.54845	-528.03583	304.25760	146.54501	-690.43970	-65.02022	1535.43567	-798.16882	97.75274	1052.03418	-747.70703	-39.07891	489.32819	-755.83588	-15.63788	207.15373	-875.85034	-78.68372	141.27127	-647.07324	-63.46666	872.11169	-583.73944	223.05257	817.97931				-684.18054	81.98096	573.35449	-684.59790	147.99448	579.09381	-674.13995	171.53610	157.32733	-608.02808	-73.87056	159.17863	-648.94012	-65.36077	163.96617	-606.48132	120.80928	1353.90649	-687.41266	293.88287	871.38733	-655.03430	26.86666	517.66864				-670.87390	-53.27922	758.02686	-694.96405	-26.41283	614.71326	-702.88208	-24.82413	568.25165	
2	0.020	-671.97430	128.39053	1848.98987	-733.32471	295.09164	1526.49683	-589.21716	6.07278	1055.00232	-608.75543	254.28008	1066.74329	-576.55560	8.17317	805.17029	-694.23138	275.91638	743.80432	-723.91443	255.24641	642.19397	-725.40021	250.46988	576.10278	-671.66382	209.02831	534.80139	-766.62158	259.50388	502.21072	-517.49402	-72.53024	143.02095	-549.55023	-31.56753	164.24107	-790.62891	42.60092	175.53195	-716.29193	74.83222	214.12279	-596.75153	26.31124	165.46455	-671.77130	56.26709	153.75584	-711.11603	152.53581	216.35181	-794.71173	175.66747	184.43118	-768.10535	225.35840	205.27713	-591.82635	220.04317	174.12210	-882.50012	295.98505	144.57483	-556.05499	257.54660	164.75407	-661.37762	298.24316	157.32686	-624.91516	306.99689	158.38037	-528.11450	304.37653	146.40186	-690.51422	-65.15366	1535.35193	-798.17725	97.81866	1051.84180	-747.69147	-39.14946	489.08694	-755.85864	-15.73964	207.23341	-875.85034	-78.68372	141.27127	-647.00714	-63.54885	872.22394	-583.73907	223.00824	817.96497				-684.31970	82.08573	573.24207	-684.59790	147.99448	579.09381	-674.13995	171.53610	157.32733	-608.02808	-73.87056	159.17863	-648.83960	-65.49369	164.07005	-606.52209	120.97254	1353.99805	-687.43188	293.81104	871.50641	-655.05878	26.73111	517.53821				-670.87848	-53.33657	757.98114	-694.91309	-26.23485	614.55829	-702.78064	-24.93431	568.28442	
3	0.040	-671.82117	128.27165	1848.92163	-733.35437	295.13449	1526.52612	-589.36151	6.09728	1054.97021	-609.00604	254.46063	1066.81616	-576.61530	8.35809	805.16333	-694.35870	276.06854	743.74890	-724.00635	255.25668	642.23370	-725.46729	250.45139	576.21783	-671.75262	208.98683	534.71198	-766.62158	259.50388	502.21072	-517.36572	-72.84354	143.08492	-549.55023	-31.56753	164.24107	-790.76514	42.55461	175.47430	-715.86993	75.06654	214.45013	-596.82117	26.35933	165.65271	-671.89734	56.44088	153.75284	-711.22009	152.67274	216.30681	-794.66547	175.66780	184.49214	-767.93805	225.55727	205.43219	-591.76141	220.01183	174.18036	-882.64618	296.20435	144.57506	-555.96539	257.38519	164.49036	-661.27216	298.13916	157.47878	-624.86725	307.06570	158.43161	-528.11450	304.37653	146.40186	-690.61438	-65.14595	1535.36023	-798.41650	97.74996	1052.07214	-747.63025	-39.13286	489.12643	-755.85864	-15.73964	207.23341	-875.85034	-78.68372	141.27127	-646.99756	-63.46289	872.17694	-583.79865	223.12447	817.91882				-684.18152	82.09809	573.55957	-684.59790	147.99448	579.09381	-674.13995	171.53610	157.32733	-608.02808	-73.87056	159.17863	-648.95483	-65.43377	164.23193	-606.52209	120.97254	1353.99805	-687.39825	293.65628	871.33661	-655.33179	26.85349	517.46295				-670.83301	-53.34141	758.08203	-695.06830	-26.30749	614.70557	-702.81726	-25.02607	568.30859	
4	0.060	-671.79889	128.07376	1849.02136	-733.42682	295.01575	1526.51855	-589.42273	6.08307	1054.99634	-608.97504	254.52936	1066.78638	-576.73102	8.55673	805.15802	-694.35773	275.98373	743.80359	-724.03357	254.97986	642.08673	-725.46143	250.37245	576.11627	-671.64948	208.94978	534.70026	-766.69653	259.47083	502.36209	-517.37469	-72.56111	142.97072	-549.54401	-31.43096	164.17212	-790.68036	42.59146	175.49414	-716.43744	74.85353	214.38315	-596.75153	26.31124	165.46455	-671.68085	56.28521	153.62173	-711.21106	152.96082	216.29463	-794.63812	175.64963	184.49289	-768.12738	225.41985	205.30896	-591.76141	220.01183	174.18036	-882.58575	296.13757	144.56622	-555.99341	257.35736	164.25166	-661.46521	298.31796	157.41177	-624.76587	307.13358	158.47490	-528.04254	304.25919	146.36279	-690.73901	-65.40639	1535.33984	-798.42157	97.62539	1051.89575	-747.63190	-39.16599	489.31815	-755.85864	-15.73964	207.23341	-875.82367	-78.74851	141.22487	-647.09082	-63.56854	872.26971	-583.83740	223.03738	818.06354				-684.18152	82.09809	573.55957	-684.59790	147.99448	579.09381	-674.13995	171.53610	157.32733	-607.82123	-73.90501	159.36327	-649.04767	-65.34121	163.92479	-606.67365	120.83517	1354.07043	-687.45123	294.17935	871.56537	-655.32086	26.72404	517.52747				-670.94788	-53.25376	757.97156	-694.88092	-26.29669	614.53528	-702.61749	-25.17370	568.45331	
5	0.080	-671.69781	128.12935	1849.00330	-733.43262	294.89447	1526.47656	-589.42273	6.08307	1054.99634	-608.98639	254.35330	1066.97656	-577.03210	8.78246	805.08850	-694.48450	276.12817	743.71338	-724.04382	255.24654	642.16199	-725.46143	250.37245	576.11627	-671.76691	209.06535	534.81305	-766.60645	259.56128	502.35294	-517.50092	-72.63654	143.18727	-549.55023	-31.56753	164.24107	-790.72070	42.55383	175.43349	-716.14099	75.34766	214.18420	-596.83948	26.25474	165.54776	-671.86987	56.66680	154.04384	-711.23657	152.64252	216.26735	-794.71173	175.66747	184.43118	-768.04163	225.64555	205.48189	-591.65161	220.00563	174.31708	-882.54730	296.17606	144.64073	-555.94403	257.41330	164.29401	-661.33044	298.18771	157.44550	-624.81378	307.06479	158.42365	-528.12280	304.28763	146.42749	-690.80499	-65.40552	1535.35449	-798.59888	97.76162	1051.97217	-747.49768	-39.06614	488.99304	-755.79272	-15.73866	207.31078	-875.90405	-78.86106	141.20586	-647.18579	-63.49501	872.21033	-583.79022	222.99300	818.02008				-684.24170	82.02740	573.52209	-684.59790	147.99448	579.09381	-674.13995	171.53610	157.32733	-608.02808	-73.87056	159.17863	-649.01660	-65.32391	163.95541	-606.85767	120.89600	1354.01807	-687.51038	293.72476	871.36279	-655.32086	26.72404	517.52747				-670.89520	-53.20539	758.12189	-695.05109	-26.16775	614.29321	-702.45410	-24.92816	568.14966	
6	0.100	-671.24231	127.94371	1848.86243	-733.56683	294.81006	1526.56482	-589.42273	6.08307	1054.99634	-609.18536	254.42264	1066.92371	-577.05652	9.05956	805.34094	-694.42847	275.95532	743.65332	-723.90057	255.18729	642.28162	-725.46729	250.45139	576.21783	-671.75262	208.98683	534.71198	-766.55267	259.57620	502.29044	-517.36572	-72.84354	143.08492	-549.39154	-31.59995	164.28831	-790.63208	42.55814	175.48625	-716.48004	74.97468	214.28299	-596.83948	26.25474	165.54776	-671.74084	56.19026	153.83815	-711.36273	152.69543	216.14613	-794.66547	175.66780	184.49214	-768.15881	225.49901	205.31581	-591.76141	220.01183	174.18036	-882.53766	296.18567	144.65939	-555.98871	257.40027	164.35567	-661.49261	297.96616	157.25119	-624.81378	307.06479	158.42365	-528.03583	304.25760	146.54501	-690.82684	-65.53133	1535.37793	-798.55859	97.85172	1051.97278	-747.54529	-39.00176	489.01801	-755.85864	-15.73964	207.23341	-875.85034	-78.68372	141.27127	-647.33832	-63.49715	872.20599	-583.99695	223.18478	817.96680				-684.21606	82.24375	573.63147	-684.73615	147.88922	579.32513	-674.13995	171.53610	157.32733	-607.97668	-73.87793	159.38063	-648.92926	-65.44111	164.06908	-606.98535	120.80278	1353.94336	-687.54889	294.02130	871.54089	-655.32086	26.72404	517.52747				-670.94336	-53.19641	758.01733	-695.03528	-26.28791	614.62317	-702.49341	-24.93455	568.14795	
7	0.120	-670.96051	127.98288	1848.83789	-733.59705	294.78793	1526.54688	-589.67712	6.68479	1055.24744	-609.23981	254.43092	1067.10645	-577.08936	9.13619	805.24500	-694.55597	276.28882	743.82568	-724.01129	255.23485	642.21521	-725.55359	250.41837	576.29590	-671.73572	209.08411	534.70135	-766.66858	259.47287	502.30252	-517.30908	-72.79568	143.29193	-549.59222	-31.58121	164.43204	-790.68036	42.59146	175.49414	-716.04681	75.27768	214.03522	-596.83948	26.25474	165.54776	-671.89734	56.44088	153.75284	-711.21375	152.74217	216.54875	-794.59186	175.64998	184.55385	-767.99817	225.51685	205.35829	-591.89215	219.86917	174.29314	-882.59009	295.93652	144.44270	-556.23761	257.45462	164.59306	-661.27649	297.99332	157.28711	-624.91516	306.99689	158.38037	-528.03583	304.25760	146.54501	-690.86945	-65.65086	1535.38562	-798.57507	97.83211	1051.89185	-747.57422	-39.21811	489.12750	-755.85864	-15.73964	207.23341	-875.60840	-78.80363	141.39221	-647.29095	-63.50805	872.20776	-583.98456	223.11295	818.05640				-684.28229	82.06110	573.44946	-684.73615	147.88922	579.32513	-674.13995	171.53610	157.32733	-608.02808	-73.87056	159.17863	-648.97327	-65.40912	164.28377	-606.90869	120.69133	1353.97327	-687.55249	294.51068	872.09540	-655.35822	26.67040	517.23535				-670.90875	-53.18028	758.09161	-695.01703	-26.15325	614.61322	-702.66650	-24.69888	568.02319	
8	0.140	-670.50000	128.25317	1848.72620	-733.58435	294.66425	1526.58398	-589.74829	6.21269	1054.88306	-609.76147	254.33180	1067.21826	-577.33105	9.27537	805.27332	-694.63544	276.38495	744.07489	-724.11023	255.21074	642.17047	-725.46729	250.45139	576.21783	-671.76691	209.06535	534.81305	-766.86670	259.44281	502.14767	-517.43286	-72.71673	142.92928	-549.63068	-31.64411	164.51962	-790.67175	42.47677	175.47566	-716.15106	75.25368	214.33159	-596.83948	26.25474	165.54776	-671.71338	56.41619	154.12915	-711.15259	152.71632	216.23572	-794.84290	175.88739	184.75774	-767.99756	225.56232	205.30835	-591.82635	220.04317	174.12210	-882.58875	296.13010	144.66049	-556.23761	257.45462	164.59306	-661.27106	298.24008	157.56007	-624.91516	306.99689	158.38037	-528.11450	304.37653	146.40186	-690.82867	-65.55683	1535.34534	-798.70728	97.65279	1051.91077	-747.53912	-39.26718	489.04205	-755.85864	-15.73964	207.23341	-875.71899	-78.98978	141.26895	-647.51294	-63.26105	872.05414	-584.24005	223.09639	817.82709				-684.22070	82.35162	573.69299	-684.73615	147.88922	579.32513	-674.13995	171.53610	157.32733	-608.02808	-73.87056	159.17863	-648.87311	-65.51063	164.11508	-606.98535	120.80278	1353.94336	-687.64258	294.47693	872.01093	-655.18628	26.81701	517.63000				-670.99628	-53.08064	758.12262	-694.92236	-26.01094	614.41479	-702.49158	-24.85067	568.24805	
